<?xml version="1.0" encoding="UTF-8"?><svg xmlns="http://www.w3.org/2000/svg" xmlns:xlink="http://www.w3.org/1999/xlink" width="375" zoomAndPan="magnify" viewBox="0 0 375 374.999991" height="374.999991" preserveAspectRatio="xMidYMid meet" version="1.0"><defs><clipPath id="clip-0"><path d="M 274 1.71875 L 373.394531 1.71875 L 373.394531 101 L 274 101 Z M 274 1.71875 " clip-rule="nonzero"/></clipPath><clipPath id="clip-1"><path d="M 274 274 L 373.394531 274 L 373.394531 373.394531 L 274 373.394531 Z M 274 274 " clip-rule="nonzero"/></clipPath><clipPath id="clip-2"><path d="M 1.71875 1.71875 L 101 1.71875 L 101 101 L 1.71875 101 Z M 1.71875 1.71875 " clip-rule="nonzero"/></clipPath><clipPath id="clip-3"><path d="M 1.71875 274 L 101 274 L 101 373.394531 L 1.71875 373.394531 Z M 1.71875 274 " clip-rule="nonzero"/></clipPath></defs><rect x="-37.5" width="450" fill="rgb(100%, 100%, 100%)" y="-37.499999" height="449.999989" fill-opacity="1"/><rect x="-37.5" width="450" fill="rgb(100%, 100%, 100%)" y="-37.499999" height="449.999989" fill-opacity="1"/><rect x="-37.5" width="450" fill="rgb(100%, 100%, 100%)" y="-37.499999" height="449.999989" fill-opacity="1"/><path fill="rgb(65.489197%, 73.728943%, 81.17981%)" d="M 230.914062 240.882812 L 240.875 230.921875 L 297.242188 287.285156 L 287.28125 297.246094 Z M 230.914062 240.882812 " fill-opacity="1" fill-rule="nonzero"/><path fill="rgb(65.489197%, 73.728943%, 81.17981%)" d="M 232.738281 133.683594 L 288.023438 78.386719 L 296.710938 87.070312 L 241.421875 142.367188 Z M 232.738281 133.683594 " fill-opacity="1" fill-rule="nonzero"/><g clip-path="url(#clip-0)"><path fill="rgb(85.099792%, 85.099792%, 85.099792%)" d="M 373.542969 51.277344 C 373.542969 52.898438 373.464844 54.519531 373.304688 56.132812 C 373.144531 57.75 372.90625 59.351562 372.589844 60.945312 C 372.273438 62.535156 371.878906 64.109375 371.410156 65.664062 C 370.9375 67.214844 370.390625 68.742188 369.769531 70.242188 C 369.148438 71.742188 368.457031 73.207031 367.691406 74.636719 C 366.925781 76.070312 366.09375 77.460938 365.191406 78.808594 C 364.289062 80.160156 363.324219 81.460938 362.292969 82.714844 C 361.265625 83.96875 360.175781 85.171875 359.027344 86.320312 C 357.878906 87.464844 356.679688 88.554688 355.425781 89.585938 C 354.171875 90.613281 352.867188 91.582031 351.519531 92.480469 C 350.167969 93.382812 348.777344 94.21875 347.347656 94.980469 C 345.914062 95.746094 344.449219 96.441406 342.949219 97.0625 C 341.453125 97.683594 339.925781 98.230469 338.371094 98.699219 C 336.820312 99.171875 335.246094 99.566406 333.652344 99.882812 C 332.0625 100.199219 330.457031 100.4375 328.84375 100.59375 C 327.226562 100.753906 325.609375 100.832031 323.984375 100.832031 C 322.363281 100.832031 320.742188 100.753906 319.128906 100.59375 C 317.515625 100.4375 315.910156 100.199219 314.316406 99.882812 C 312.726562 99.566406 311.152344 99.171875 309.601562 98.699219 C 308.046875 98.230469 306.519531 97.683594 305.023438 97.0625 C 303.523438 96.441406 302.058594 95.746094 300.625 94.980469 C 299.195312 94.21875 297.804688 93.382812 296.453125 92.480469 C 295.105469 91.582031 293.800781 90.613281 292.546875 89.585938 C 291.292969 88.554688 290.09375 87.464844 288.945312 86.320312 C 287.796875 85.171875 286.707031 83.96875 285.679688 82.714844 C 284.648438 81.460938 283.683594 80.160156 282.78125 78.808594 C 281.878906 77.460938 281.046875 76.070312 280.28125 74.636719 C 279.515625 73.207031 278.824219 71.742188 278.203125 70.242188 C 277.582031 68.742188 277.035156 67.214844 276.5625 65.664062 C 276.09375 64.109375 275.699219 62.535156 275.382812 60.945312 C 275.066406 59.351562 274.828125 57.75 274.667969 56.132812 C 274.507812 54.519531 274.429688 52.898438 274.429688 51.277344 C 274.429688 49.652344 274.507812 48.035156 274.667969 46.417969 C 274.828125 44.804688 275.066406 43.199219 275.382812 41.609375 C 275.699219 40.015625 276.09375 38.445312 276.5625 36.890625 C 277.035156 35.339844 277.582031 33.8125 278.203125 32.3125 C 278.824219 30.8125 279.515625 29.347656 280.28125 27.917969 C 281.046875 26.484375 281.878906 25.09375 282.78125 23.746094 C 283.683594 22.394531 284.648438 21.09375 285.679688 19.839844 C 286.707031 18.585938 287.796875 17.382812 288.945312 16.234375 C 290.09375 15.085938 291.292969 14 292.546875 12.96875 C 293.800781 11.941406 295.105469 10.972656 296.453125 10.074219 C 297.804688 9.171875 299.195312 8.335938 300.625 7.570312 C 302.058594 6.808594 303.523438 6.113281 305.023438 5.492188 C 306.519531 4.871094 308.046875 4.324219 309.601562 3.855469 C 311.152344 3.382812 312.726562 2.988281 314.316406 2.671875 C 315.910156 2.355469 317.515625 2.117188 319.128906 1.960938 C 320.742188 1.800781 322.363281 1.71875 323.984375 1.71875 C 325.609375 1.71875 327.226562 1.800781 328.84375 1.960938 C 330.457031 2.117188 332.0625 2.355469 333.652344 2.671875 C 335.246094 2.988281 336.820312 3.382812 338.371094 3.855469 C 339.925781 4.324219 341.453125 4.871094 342.949219 5.492188 C 344.449219 6.113281 345.914062 6.808594 347.347656 7.570312 C 348.777344 8.335938 350.167969 9.171875 351.519531 10.074219 C 352.867188 10.972656 354.171875 11.941406 355.425781 12.96875 C 356.679688 14 357.878906 15.085938 359.027344 16.234375 C 360.175781 17.382812 361.265625 18.585938 362.292969 19.839844 C 363.324219 21.09375 364.289062 22.394531 365.191406 23.746094 C 366.09375 25.09375 366.925781 26.484375 367.691406 27.917969 C 368.457031 29.347656 369.148438 30.8125 369.769531 32.3125 C 370.390625 33.8125 370.9375 35.339844 371.410156 36.890625 C 371.878906 38.445312 372.273438 40.015625 372.589844 41.609375 C 372.90625 43.199219 373.144531 44.804688 373.304688 46.417969 C 373.464844 48.035156 373.542969 49.652344 373.542969 51.277344 Z M 373.542969 51.277344 " fill-opacity="1" fill-rule="nonzero"/></g><path fill="rgb(54.508972%, 54.119873%, 54.119873%)" d="M 330.03125 45.082031 L 317.644531 45.082031 C 310.796875 45.082031 305.253906 50.625 305.253906 57.472656 L 305.253906 76.054688 L 342.421875 76.054688 L 342.421875 57.472656 C 342.421875 50.625 336.878906 45.082031 330.03125 45.082031 Z M 330.03125 45.082031 " fill-opacity="1" fill-rule="nonzero"/><path fill="rgb(54.508972%, 54.119873%, 54.119873%)" d="M 336.226562 32.695312 C 336.226562 33.507812 336.148438 34.3125 335.988281 35.109375 C 335.828125 35.910156 335.59375 36.683594 335.285156 37.433594 C 334.972656 38.1875 334.589844 38.898438 334.140625 39.578125 C 333.6875 40.253906 333.171875 40.878906 332.597656 41.453125 C 332.023438 42.027344 331.398438 42.542969 330.71875 42.996094 C 330.042969 43.445312 329.332031 43.828125 328.578125 44.140625 C 327.828125 44.449219 327.050781 44.6875 326.253906 44.84375 C 325.457031 45.003906 324.652344 45.082031 323.835938 45.082031 C 323.023438 45.082031 322.21875 45.003906 321.421875 44.84375 C 320.621094 44.6875 319.847656 44.449219 319.097656 44.140625 C 318.34375 43.828125 317.632812 43.445312 316.953125 42.996094 C 316.277344 42.542969 315.652344 42.027344 315.078125 41.453125 C 314.5 40.878906 313.988281 40.253906 313.535156 39.578125 C 313.085938 38.898438 312.703125 38.1875 312.390625 37.433594 C 312.082031 36.683594 311.84375 35.910156 311.6875 35.109375 C 311.527344 34.3125 311.449219 33.507812 311.449219 32.695312 C 311.449219 31.878906 311.527344 31.074219 311.6875 30.277344 C 311.84375 29.480469 312.082031 28.703125 312.390625 27.953125 C 312.703125 27.199219 313.085938 26.488281 313.535156 25.808594 C 313.988281 25.132812 314.5 24.507812 315.078125 23.933594 C 315.652344 23.359375 316.277344 22.84375 316.953125 22.390625 C 317.632812 21.941406 318.34375 21.558594 319.097656 21.246094 C 319.847656 20.9375 320.621094 20.699219 321.421875 20.542969 C 322.21875 20.382812 323.023438 20.304688 323.835938 20.304688 C 324.652344 20.304688 325.457031 20.382812 326.253906 20.542969 C 327.050781 20.699219 327.828125 20.9375 328.578125 21.246094 C 329.332031 21.558594 330.042969 21.941406 330.71875 22.390625 C 331.398438 22.84375 332.023438 23.359375 332.597656 23.933594 C 333.171875 24.507812 333.6875 25.132812 334.140625 25.808594 C 334.589844 26.488281 334.972656 27.199219 335.285156 27.953125 C 335.59375 28.703125 335.828125 29.480469 335.988281 30.277344 C 336.148438 31.074219 336.226562 31.878906 336.226562 32.695312 Z M 336.226562 32.695312 " fill-opacity="1" fill-rule="nonzero"/><g clip-path="url(#clip-1)"><path fill="rgb(85.099792%, 85.099792%, 85.099792%)" d="M 373.542969 323.835938 C 373.542969 325.460938 373.464844 327.078125 373.304688 328.695312 C 373.144531 330.308594 372.90625 331.914062 372.589844 333.503906 C 372.273438 335.097656 371.878906 336.671875 371.410156 338.222656 C 370.9375 339.777344 370.390625 341.300781 369.769531 342.800781 C 369.148438 344.300781 368.457031 345.765625 367.691406 347.199219 C 366.925781 348.628906 366.09375 350.019531 365.191406 351.371094 C 364.289062 352.71875 363.324219 354.019531 362.292969 355.277344 C 361.265625 356.53125 360.175781 357.730469 359.027344 358.878906 C 357.878906 360.027344 356.679688 361.117188 355.425781 362.144531 C 354.171875 363.175781 352.867188 364.140625 351.519531 365.042969 C 350.167969 365.945312 348.777344 366.777344 347.347656 367.542969 C 345.914062 368.308594 344.449219 369 342.949219 369.621094 C 341.453125 370.242188 339.925781 370.789062 338.371094 371.261719 C 336.820312 371.730469 335.246094 372.125 333.652344 372.441406 C 332.0625 372.757812 330.457031 372.996094 328.84375 373.15625 C 327.226562 373.316406 325.609375 373.394531 323.984375 373.394531 C 322.363281 373.394531 320.742188 373.316406 319.128906 373.15625 C 317.515625 372.996094 315.910156 372.757812 314.316406 372.441406 C 312.726562 372.125 311.152344 371.730469 309.601562 371.261719 C 308.046875 370.789062 306.519531 370.242188 305.023438 369.621094 C 303.523438 369 302.058594 368.308594 300.625 367.542969 C 299.195312 366.777344 297.804688 365.945312 296.453125 365.042969 C 295.105469 364.140625 293.800781 363.175781 292.546875 362.144531 C 291.292969 361.117188 290.09375 360.027344 288.945312 358.878906 C 287.796875 357.730469 286.707031 356.53125 285.679688 355.277344 C 284.648438 354.019531 283.683594 352.71875 282.78125 351.371094 C 281.878906 350.019531 281.046875 348.628906 280.28125 347.199219 C 279.515625 345.765625 278.824219 344.300781 278.203125 342.800781 C 277.582031 341.300781 277.035156 339.777344 276.5625 338.222656 C 276.09375 336.671875 275.699219 335.097656 275.382812 333.503906 C 275.066406 331.914062 274.828125 330.308594 274.667969 328.695312 C 274.507812 327.078125 274.429688 325.460938 274.429688 323.835938 C 274.429688 322.214844 274.507812 320.59375 274.667969 318.980469 C 274.828125 317.363281 275.066406 315.761719 275.382812 314.167969 C 275.699219 312.578125 276.09375 311.003906 276.5625 309.453125 C 277.035156 307.898438 277.582031 306.371094 278.203125 304.875 C 278.824219 303.375 279.515625 301.910156 280.28125 300.476562 C 281.046875 299.046875 281.878906 297.65625 282.78125 296.304688 C 283.683594 294.957031 284.648438 293.652344 285.679688 292.398438 C 286.707031 291.144531 287.796875 289.945312 288.945312 288.796875 C 290.09375 287.648438 291.292969 286.558594 292.546875 285.53125 C 293.800781 284.5 295.105469 283.535156 296.453125 282.632812 C 297.804688 281.730469 299.195312 280.898438 300.625 280.132812 C 302.058594 279.367188 303.523438 278.675781 305.023438 278.054688 C 306.519531 277.433594 308.046875 276.886719 309.601562 276.414062 C 311.152344 275.945312 312.726562 275.550781 314.316406 275.234375 C 315.910156 274.917969 317.515625 274.679688 319.128906 274.519531 C 320.742188 274.359375 322.363281 274.28125 323.984375 274.28125 C 325.609375 274.28125 327.226562 274.359375 328.84375 274.519531 C 330.457031 274.679688 332.0625 274.917969 333.652344 275.234375 C 335.246094 275.550781 336.820312 275.945312 338.371094 276.414062 C 339.925781 276.886719 341.453125 277.433594 342.949219 278.054688 C 344.449219 278.675781 345.914062 279.367188 347.347656 280.132812 C 348.777344 280.898438 350.167969 281.730469 351.519531 282.632812 C 352.867188 283.535156 354.171875 284.5 355.425781 285.53125 C 356.679688 286.558594 357.878906 287.648438 359.027344 288.796875 C 360.175781 289.945312 361.265625 291.144531 362.292969 292.398438 C 363.324219 293.652344 364.289062 294.957031 365.191406 296.304688 C 366.09375 297.65625 366.925781 299.046875 367.691406 300.476562 C 368.457031 301.910156 369.148438 303.375 369.769531 304.875 C 370.390625 306.371094 370.9375 307.898438 371.410156 309.453125 C 371.878906 311.003906 372.273438 312.578125 372.589844 314.167969 C 372.90625 315.761719 373.144531 317.363281 373.304688 318.980469 C 373.464844 320.59375 373.542969 322.214844 373.542969 323.835938 Z M 373.542969 323.835938 " fill-opacity="1" fill-rule="nonzero"/></g><path fill="rgb(54.508972%, 54.119873%, 54.119873%)" d="M 330.03125 317.644531 L 317.644531 317.644531 C 310.796875 317.644531 305.253906 323.1875 305.253906 330.03125 L 305.253906 348.617188 L 342.421875 348.617188 L 342.421875 330.03125 C 342.421875 323.1875 336.878906 317.644531 330.03125 317.644531 Z M 330.03125 317.644531 " fill-opacity="1" fill-rule="nonzero"/><path fill="rgb(54.508972%, 54.119873%, 54.119873%)" d="M 336.226562 305.253906 C 336.226562 306.066406 336.148438 306.875 335.988281 307.671875 C 335.828125 308.46875 335.59375 309.242188 335.285156 309.996094 C 334.972656 310.746094 334.589844 311.460938 334.140625 312.136719 C 333.6875 312.8125 333.171875 313.4375 332.597656 314.015625 C 332.023438 314.589844 331.398438 315.101562 330.71875 315.554688 C 330.042969 316.007812 329.332031 316.386719 328.578125 316.699219 C 327.828125 317.011719 327.050781 317.246094 326.253906 317.40625 C 325.457031 317.5625 324.652344 317.644531 323.835938 317.644531 C 323.023438 317.644531 322.21875 317.5625 321.421875 317.40625 C 320.621094 317.246094 319.847656 317.011719 319.097656 316.699219 C 318.34375 316.386719 317.632812 316.007812 316.953125 315.554688 C 316.277344 315.101562 315.652344 314.589844 315.078125 314.015625 C 314.5 313.4375 313.988281 312.8125 313.535156 312.136719 C 313.085938 311.460938 312.703125 310.746094 312.390625 309.996094 C 312.082031 309.242188 311.84375 308.46875 311.6875 307.671875 C 311.527344 306.875 311.449219 306.066406 311.449219 305.253906 C 311.449219 304.441406 311.527344 303.636719 311.6875 302.835938 C 311.84375 302.039062 312.082031 301.265625 312.390625 300.511719 C 312.703125 299.761719 313.085938 299.046875 313.535156 298.371094 C 313.988281 297.695312 314.5 297.070312 315.078125 296.492188 C 315.652344 295.917969 316.277344 295.40625 316.953125 294.953125 C 317.632812 294.5 318.34375 294.121094 319.097656 293.808594 C 319.847656 293.496094 320.621094 293.261719 321.421875 293.101562 C 322.21875 292.945312 323.023438 292.863281 323.835938 292.863281 C 324.652344 292.863281 325.457031 292.945312 326.253906 293.101562 C 327.050781 293.261719 327.828125 293.496094 328.578125 293.808594 C 329.332031 294.121094 330.042969 294.5 330.71875 294.953125 C 331.398438 295.40625 332.023438 295.917969 332.597656 296.492188 C 333.171875 297.070312 333.6875 297.695312 334.140625 298.371094 C 334.589844 299.046875 334.972656 299.761719 335.285156 300.511719 C 335.59375 301.265625 335.828125 302.039062 335.988281 302.835938 C 336.148438 303.636719 336.226562 304.441406 336.226562 305.253906 Z M 336.226562 305.253906 " fill-opacity="1" fill-rule="nonzero"/><path fill="rgb(65.489197%, 73.728943%, 81.17981%)" d="M 79.066406 87.796875 L 88.453125 78.410156 L 141.554688 131.511719 L 132.167969 140.898438 Z M 79.066406 87.796875 " fill-opacity="1" fill-rule="nonzero"/><path fill="rgb(65.489197%, 73.728943%, 81.17981%)" d="M 77.871094 288.484375 L 133.621094 232.734375 L 142.382812 241.492188 L 86.628906 297.246094 Z M 77.871094 288.484375 " fill-opacity="1" fill-rule="nonzero"/><path fill="rgb(65.489197%, 73.728943%, 81.17981%)" d="M 181.363281 69.859375 L 193.75 69.859375 L 193.75 119.417969 L 181.363281 119.417969 Z M 181.363281 69.859375 " fill-opacity="1" fill-rule="nonzero"/><path fill="rgb(65.489197%, 73.728943%, 81.17981%)" d="M 181.363281 255.699219 L 193.75 255.699219 L 193.75 305.253906 L 181.363281 305.253906 Z M 181.363281 255.699219 " fill-opacity="1" fill-rule="nonzero"/><path fill="rgb(65.489197%, 73.728943%, 81.17981%)" d="M 255.699219 181.363281 L 305.253906 181.363281 L 305.253906 193.75 L 255.699219 193.75 Z M 255.699219 181.363281 " fill-opacity="1" fill-rule="nonzero"/><path fill="rgb(65.489197%, 73.728943%, 81.17981%)" d="M 69.859375 181.363281 L 119.417969 181.363281 L 119.417969 193.75 L 69.859375 193.75 Z M 69.859375 181.363281 " fill-opacity="1" fill-rule="nonzero"/><g clip-path="url(#clip-2)"><path fill="rgb(85.099792%, 85.099792%, 85.099792%)" d="M 100.980469 51.277344 C 100.980469 52.898438 100.902344 54.519531 100.742188 56.132812 C 100.585938 57.75 100.347656 59.351562 100.03125 60.945312 C 99.714844 62.535156 99.320312 64.109375 98.847656 65.664062 C 98.378906 67.214844 97.832031 68.742188 97.210938 70.242188 C 96.589844 71.742188 95.894531 73.207031 95.128906 74.636719 C 94.367188 76.070312 93.53125 77.460938 92.628906 78.808594 C 91.730469 80.160156 90.761719 81.460938 89.734375 82.714844 C 88.703125 83.96875 87.613281 85.171875 86.46875 86.320312 C 85.320312 87.464844 84.117188 88.554688 82.863281 89.585938 C 81.609375 90.613281 80.308594 91.582031 78.957031 92.480469 C 77.609375 93.382812 76.21875 94.21875 74.785156 94.980469 C 73.355469 95.746094 71.890625 96.441406 70.390625 97.0625 C 68.890625 97.683594 67.363281 98.230469 65.8125 98.699219 C 64.257812 99.171875 62.6875 99.566406 61.09375 99.882812 C 59.5 100.199219 57.898438 100.4375 56.28125 100.59375 C 54.667969 100.753906 53.050781 100.832031 51.425781 100.832031 C 49.804688 100.832031 48.183594 100.753906 46.570312 100.59375 C 44.953125 100.4375 43.351562 100.199219 41.757812 99.882812 C 40.164062 99.566406 38.59375 99.171875 37.039062 98.699219 C 35.488281 98.230469 33.960938 97.683594 32.460938 97.0625 C 30.960938 96.441406 29.496094 95.746094 28.066406 94.980469 C 26.632812 94.21875 25.242188 93.382812 23.894531 92.480469 C 22.542969 91.582031 21.242188 90.613281 19.988281 89.585938 C 18.734375 88.554688 17.53125 87.464844 16.382812 86.320312 C 15.238281 85.171875 14.148438 83.96875 13.117188 82.714844 C 12.089844 81.460938 11.121094 80.160156 10.222656 78.808594 C 9.320312 77.460938 8.484375 76.070312 7.722656 74.636719 C 6.957031 73.207031 6.261719 71.742188 5.640625 70.242188 C 5.019531 68.742188 4.472656 67.214844 4.003906 65.664062 C 3.53125 64.109375 3.136719 62.535156 2.820312 60.945312 C 2.503906 59.351562 2.265625 57.75 2.109375 56.132812 C 1.949219 54.519531 1.871094 52.898438 1.871094 51.277344 C 1.871094 49.652344 1.949219 48.035156 2.109375 46.417969 C 2.265625 44.804688 2.503906 43.199219 2.820312 41.609375 C 3.136719 40.015625 3.53125 38.445312 4.003906 36.890625 C 4.472656 35.339844 5.019531 33.8125 5.640625 32.3125 C 6.261719 30.8125 6.957031 29.347656 7.722656 27.917969 C 8.484375 26.484375 9.320312 25.09375 10.222656 23.746094 C 11.121094 22.394531 12.089844 21.09375 13.117188 19.839844 C 14.148438 18.585938 15.238281 17.382812 16.382812 16.234375 C 17.53125 15.085938 18.734375 14 19.988281 12.96875 C 21.242188 11.941406 22.542969 10.972656 23.894531 10.074219 C 25.242188 9.171875 26.632812 8.335938 28.066406 7.570312 C 29.496094 6.808594 30.960938 6.113281 32.460938 5.492188 C 33.960938 4.871094 35.488281 4.324219 37.039062 3.855469 C 38.59375 3.382812 40.164062 2.988281 41.757812 2.671875 C 43.351562 2.355469 44.953125 2.117188 46.570312 1.960938 C 48.183594 1.800781 49.804688 1.71875 51.425781 1.71875 C 53.050781 1.71875 54.667969 1.800781 56.28125 1.960938 C 57.898438 2.117188 59.5 2.355469 61.09375 2.671875 C 62.6875 2.988281 64.257812 3.382812 65.8125 3.855469 C 67.363281 4.324219 68.890625 4.871094 70.390625 5.492188 C 71.890625 6.113281 73.355469 6.808594 74.785156 7.570312 C 76.21875 8.335938 77.609375 9.171875 78.957031 10.074219 C 80.308594 10.972656 81.609375 11.941406 82.863281 12.96875 C 84.117188 14 85.320312 15.085938 86.46875 16.234375 C 87.613281 17.382812 88.703125 18.585938 89.734375 19.839844 C 90.761719 21.09375 91.730469 22.394531 92.628906 23.746094 C 93.53125 25.09375 94.367188 26.484375 95.128906 27.917969 C 95.894531 29.347656 96.589844 30.8125 97.210938 32.3125 C 97.832031 33.8125 98.378906 35.339844 98.847656 36.890625 C 99.320312 38.445312 99.714844 40.015625 100.03125 41.609375 C 100.347656 43.199219 100.585938 44.804688 100.742188 46.417969 C 100.902344 48.035156 100.980469 49.652344 100.980469 51.277344 Z M 100.980469 51.277344 " fill-opacity="1" fill-rule="nonzero"/></g><path fill="rgb(54.508972%, 54.119873%, 54.119873%)" d="M 57.472656 45.082031 L 45.082031 45.082031 C 38.238281 45.082031 32.695312 50.625 32.695312 57.472656 L 32.695312 76.054688 L 69.859375 76.054688 L 69.859375 57.472656 C 69.859375 50.625 64.316406 45.082031 57.472656 45.082031 Z M 57.472656 45.082031 " fill-opacity="1" fill-rule="nonzero"/><path fill="rgb(54.508972%, 54.119873%, 54.119873%)" d="M 63.667969 32.695312 C 63.667969 33.507812 63.585938 34.3125 63.429688 35.109375 C 63.269531 35.910156 63.035156 36.683594 62.722656 37.433594 C 62.410156 38.1875 62.03125 38.898438 61.578125 39.578125 C 61.125 40.253906 60.613281 40.878906 60.039062 41.453125 C 59.460938 42.027344 58.835938 42.542969 58.160156 42.996094 C 57.484375 43.445312 56.769531 43.828125 56.019531 44.140625 C 55.265625 44.449219 54.492188 44.6875 53.695312 44.84375 C 52.894531 45.003906 52.089844 45.082031 51.277344 45.082031 C 50.464844 45.082031 49.65625 45.003906 48.859375 44.84375 C 48.0625 44.6875 47.289062 44.449219 46.535156 44.140625 C 45.785156 43.828125 45.070312 43.445312 44.394531 42.996094 C 43.71875 42.542969 43.09375 42.027344 42.515625 41.453125 C 41.941406 40.878906 41.429688 40.253906 40.976562 39.578125 C 40.523438 38.898438 40.140625 38.1875 39.832031 37.433594 C 39.519531 36.683594 39.285156 35.910156 39.125 35.109375 C 38.96875 34.3125 38.886719 33.507812 38.886719 32.695312 C 38.886719 31.878906 38.96875 31.074219 39.125 30.277344 C 39.285156 29.480469 39.519531 28.703125 39.832031 27.953125 C 40.140625 27.199219 40.523438 26.488281 40.976562 25.808594 C 41.429688 25.132812 41.941406 24.507812 42.515625 23.933594 C 43.09375 23.359375 43.71875 22.84375 44.394531 22.390625 C 45.070312 21.941406 45.785156 21.558594 46.535156 21.246094 C 47.289062 20.9375 48.0625 20.699219 48.859375 20.542969 C 49.65625 20.382812 50.464844 20.304688 51.277344 20.304688 C 52.089844 20.304688 52.894531 20.382812 53.695312 20.542969 C 54.492188 20.699219 55.265625 20.9375 56.019531 21.246094 C 56.769531 21.558594 57.484375 21.941406 58.160156 22.390625 C 58.835938 22.84375 59.460938 23.359375 60.039062 23.933594 C 60.613281 24.507812 61.125 25.132812 61.578125 25.808594 C 62.03125 26.488281 62.410156 27.199219 62.722656 27.953125 C 63.035156 28.703125 63.269531 29.480469 63.429688 30.277344 C 63.585938 31.074219 63.667969 31.878906 63.667969 32.695312 Z M 63.667969 32.695312 " fill-opacity="1" fill-rule="nonzero"/><g clip-path="url(#clip-3)"><path fill="rgb(85.099792%, 85.099792%, 85.099792%)" d="M 100.980469 323.835938 C 100.980469 325.460938 100.902344 327.078125 100.742188 328.695312 C 100.585938 330.308594 100.347656 331.914062 100.03125 333.503906 C 99.714844 335.097656 99.320312 336.671875 98.847656 338.222656 C 98.378906 339.777344 97.832031 341.300781 97.210938 342.800781 C 96.589844 344.300781 95.894531 345.765625 95.128906 347.199219 C 94.367188 348.628906 93.53125 350.019531 92.628906 351.371094 C 91.730469 352.71875 90.761719 354.019531 89.734375 355.277344 C 88.703125 356.53125 87.613281 357.730469 86.46875 358.878906 C 85.320312 360.027344 84.117188 361.117188 82.863281 362.144531 C 81.609375 363.175781 80.308594 364.140625 78.957031 365.042969 C 77.609375 365.945312 76.21875 366.777344 74.785156 367.542969 C 73.355469 368.308594 71.890625 369 70.390625 369.621094 C 68.890625 370.242188 67.363281 370.789062 65.8125 371.261719 C 64.257812 371.730469 62.6875 372.125 61.09375 372.441406 C 59.5 372.757812 57.898438 372.996094 56.28125 373.15625 C 54.667969 373.316406 53.050781 373.394531 51.425781 373.394531 C 49.804688 373.394531 48.183594 373.316406 46.570312 373.15625 C 44.953125 372.996094 43.351562 372.757812 41.757812 372.441406 C 40.164062 372.125 38.59375 371.730469 37.039062 371.261719 C 35.488281 370.789062 33.960938 370.242188 32.460938 369.621094 C 30.960938 369 29.496094 368.308594 28.066406 367.542969 C 26.632812 366.777344 25.242188 365.945312 23.894531 365.042969 C 22.542969 364.140625 21.242188 363.175781 19.988281 362.144531 C 18.734375 361.117188 17.53125 360.027344 16.382812 358.878906 C 15.238281 357.730469 14.148438 356.53125 13.117188 355.277344 C 12.089844 354.019531 11.121094 352.71875 10.222656 351.371094 C 9.320312 350.019531 8.484375 348.628906 7.722656 347.199219 C 6.957031 345.765625 6.261719 344.300781 5.640625 342.800781 C 5.019531 341.300781 4.472656 339.777344 4.003906 338.222656 C 3.53125 336.671875 3.136719 335.097656 2.820312 333.503906 C 2.503906 331.914062 2.265625 330.308594 2.109375 328.695312 C 1.949219 327.078125 1.871094 325.460938 1.871094 323.835938 C 1.871094 322.214844 1.949219 320.59375 2.109375 318.980469 C 2.265625 317.363281 2.503906 315.761719 2.820312 314.167969 C 3.136719 312.578125 3.53125 311.003906 4.003906 309.453125 C 4.472656 307.898438 5.019531 306.371094 5.640625 304.875 C 6.261719 303.375 6.957031 301.910156 7.722656 300.476562 C 8.484375 299.046875 9.320312 297.65625 10.222656 296.304688 C 11.121094 294.957031 12.089844 293.652344 13.117188 292.398438 C 14.148438 291.144531 15.238281 289.945312 16.382812 288.796875 C 17.53125 287.648438 18.734375 286.558594 19.988281 285.53125 C 21.242188 284.5 22.542969 283.535156 23.894531 282.632812 C 25.242188 281.730469 26.632812 280.898438 28.066406 280.132812 C 29.496094 279.367188 30.960938 278.675781 32.460938 278.054688 C 33.960938 277.433594 35.488281 276.886719 37.039062 276.414062 C 38.59375 275.945312 40.164062 275.550781 41.757812 275.234375 C 43.351562 274.917969 44.953125 274.679688 46.570312 274.519531 C 48.183594 274.359375 49.804688 274.28125 51.425781 274.28125 C 53.050781 274.28125 54.667969 274.359375 56.28125 274.519531 C 57.898438 274.679688 59.5 274.917969 61.09375 275.234375 C 62.6875 275.550781 64.257812 275.945312 65.8125 276.414062 C 67.363281 276.886719 68.890625 277.433594 70.390625 278.054688 C 71.890625 278.675781 73.355469 279.367188 74.785156 280.132812 C 76.21875 280.898438 77.609375 281.730469 78.957031 282.632812 C 80.308594 283.535156 81.609375 284.5 82.863281 285.53125 C 84.117188 286.558594 85.320312 287.648438 86.46875 288.796875 C 87.613281 289.945312 88.703125 291.144531 89.734375 292.398438 C 90.761719 293.652344 91.730469 294.957031 92.628906 296.304688 C 93.53125 297.65625 94.367188 299.046875 95.128906 300.476562 C 95.894531 301.910156 96.589844 303.375 97.210938 304.875 C 97.832031 306.371094 98.378906 307.898438 98.847656 309.453125 C 99.320312 311.003906 99.714844 312.578125 100.03125 314.167969 C 100.347656 315.761719 100.585938 317.363281 100.742188 318.980469 C 100.902344 320.59375 100.980469 322.214844 100.980469 323.835938 Z M 100.980469 323.835938 " fill-opacity="1" fill-rule="nonzero"/></g><path fill="rgb(54.508972%, 54.119873%, 54.119873%)" d="M 57.472656 317.644531 L 45.082031 317.644531 C 38.238281 317.644531 32.695312 323.1875 32.695312 330.03125 L 32.695312 348.617188 L 69.859375 348.617188 L 69.859375 330.03125 C 69.859375 323.1875 64.316406 317.644531 57.472656 317.644531 Z M 57.472656 317.644531 " fill-opacity="1" fill-rule="nonzero"/><path fill="rgb(54.508972%, 54.119873%, 54.119873%)" d="M 63.667969 305.253906 C 63.667969 306.066406 63.585938 306.875 63.429688 307.671875 C 63.269531 308.46875 63.035156 309.242188 62.722656 309.996094 C 62.410156 310.746094 62.03125 311.460938 61.578125 312.136719 C 61.125 312.8125 60.613281 313.4375 60.039062 314.015625 C 59.460938 314.589844 58.835938 315.101562 58.160156 315.554688 C 57.484375 316.007812 56.769531 316.386719 56.019531 316.699219 C 55.265625 317.011719 54.492188 317.246094 53.695312 317.40625 C 52.894531 317.5625 52.089844 317.644531 51.277344 317.644531 C 50.464844 317.644531 49.65625 317.5625 48.859375 317.40625 C 48.0625 317.246094 47.289062 317.011719 46.535156 316.699219 C 45.785156 316.386719 45.070312 316.007812 44.394531 315.554688 C 43.71875 315.101562 43.09375 314.589844 42.515625 314.015625 C 41.941406 313.4375 41.429688 312.8125 40.976562 312.136719 C 40.523438 311.460938 40.140625 310.746094 39.832031 309.996094 C 39.519531 309.242188 39.285156 308.46875 39.125 307.671875 C 38.96875 306.875 38.886719 306.066406 38.886719 305.253906 C 38.886719 304.441406 38.96875 303.636719 39.125 302.835938 C 39.285156 302.039062 39.519531 301.265625 39.832031 300.511719 C 40.140625 299.761719 40.523438 299.046875 40.976562 298.371094 C 41.429688 297.695312 41.941406 297.070312 42.515625 296.492188 C 43.09375 295.917969 43.71875 295.40625 44.394531 294.953125 C 45.070312 294.5 45.785156 294.121094 46.535156 293.808594 C 47.289062 293.496094 48.0625 293.261719 48.859375 293.101562 C 49.65625 292.945312 50.464844 292.863281 51.277344 292.863281 C 52.089844 292.863281 52.894531 292.945312 53.695312 293.101562 C 54.492188 293.261719 55.265625 293.496094 56.019531 293.808594 C 56.769531 294.121094 57.484375 294.5 58.160156 294.953125 C 58.835938 295.40625 59.460938 295.917969 60.039062 296.492188 C 60.613281 297.070312 61.125 297.695312 61.578125 298.371094 C 62.03125 299.046875 62.410156 299.761719 62.722656 300.511719 C 63.035156 301.265625 63.269531 302.039062 63.429688 302.835938 C 63.585938 303.636719 63.667969 304.441406 63.667969 305.253906 Z M 63.667969 305.253906 " fill-opacity="1" fill-rule="nonzero"/><path fill="rgb(68.629456%, 88.238525%, 90.979004%)" d="M 218.53125 51.277344 C 218.53125 52.292969 218.480469 53.304688 218.382812 54.3125 C 218.28125 55.324219 218.132812 56.324219 217.933594 57.320312 C 217.738281 58.316406 217.492188 59.296875 217.195312 60.269531 C 216.902344 61.238281 216.5625 62.191406 216.171875 63.128906 C 215.785156 64.066406 215.351562 64.984375 214.871094 65.878906 C 214.394531 66.773438 213.875 67.640625 213.308594 68.484375 C 212.746094 69.328125 212.144531 70.140625 211.5 70.925781 C 210.855469 71.710938 210.175781 72.460938 209.457031 73.179688 C 208.742188 73.894531 207.992188 74.574219 207.207031 75.21875 C 206.421875 75.863281 205.609375 76.464844 204.765625 77.03125 C 203.921875 77.59375 203.050781 78.113281 202.15625 78.59375 C 201.261719 79.070312 200.347656 79.503906 199.410156 79.890625 C 198.472656 80.28125 197.519531 80.621094 196.546875 80.917969 C 195.578125 81.210938 194.59375 81.457031 193.601562 81.65625 C 192.605469 81.851562 191.601562 82 190.59375 82.101562 C 189.582031 82.199219 188.570312 82.25 187.558594 82.25 C 186.542969 82.25 185.53125 82.199219 184.523438 82.101562 C 183.511719 82 182.511719 81.851562 181.515625 81.65625 C 180.519531 81.457031 179.539062 81.210938 178.566406 80.917969 C 177.597656 80.621094 176.640625 80.28125 175.703125 79.890625 C 174.765625 79.503906 173.851562 79.070312 172.957031 78.59375 C 172.0625 78.113281 171.191406 77.59375 170.351562 77.03125 C 169.507812 76.464844 168.691406 75.863281 167.910156 75.21875 C 167.125 74.574219 166.375 73.894531 165.65625 73.179688 C 164.9375 72.460938 164.257812 71.710938 163.613281 70.925781 C 162.972656 70.140625 162.367188 69.328125 161.804688 68.484375 C 161.242188 67.640625 160.71875 66.773438 160.242188 65.878906 C 159.761719 64.984375 159.332031 64.066406 158.941406 63.128906 C 158.554688 62.191406 158.210938 61.238281 157.917969 60.269531 C 157.625 59.296875 157.378906 58.316406 157.179688 57.320312 C 156.980469 56.324219 156.832031 55.324219 156.734375 54.3125 C 156.632812 53.304688 156.585938 52.292969 156.585938 51.277344 C 156.585938 50.261719 156.632812 49.25 156.734375 48.242188 C 156.832031 47.230469 156.980469 46.230469 157.179688 45.234375 C 157.378906 44.238281 157.625 43.257812 157.917969 42.285156 C 158.210938 41.316406 158.554688 40.363281 158.941406 39.425781 C 159.332031 38.488281 159.761719 37.570312 160.242188 36.675781 C 160.71875 35.78125 161.242188 34.914062 161.804688 34.070312 C 162.367188 33.226562 162.972656 32.414062 163.613281 31.628906 C 164.257812 30.84375 164.9375 30.09375 165.65625 29.375 C 166.375 28.660156 167.125 27.976562 167.910156 27.335938 C 168.691406 26.691406 169.507812 26.085938 170.351562 25.523438 C 171.191406 24.960938 172.0625 24.441406 172.957031 23.960938 C 173.851562 23.484375 174.765625 23.050781 175.703125 22.660156 C 176.640625 22.273438 177.597656 21.933594 178.566406 21.636719 C 179.539062 21.34375 180.519531 21.097656 181.515625 20.898438 C 182.511719 20.703125 183.511719 20.554688 184.523438 20.453125 C 185.53125 20.355469 186.542969 20.304688 187.558594 20.304688 C 188.570312 20.304688 189.582031 20.355469 190.59375 20.453125 C 191.601562 20.554688 192.605469 20.703125 193.601562 20.898438 C 194.59375 21.097656 195.578125 21.34375 196.546875 21.636719 C 197.519531 21.933594 198.472656 22.273438 199.410156 22.660156 C 200.347656 23.050781 201.261719 23.484375 202.15625 23.960938 C 203.050781 24.441406 203.921875 24.960938 204.765625 25.523438 C 205.609375 26.085938 206.421875 26.691406 207.207031 27.335938 C 207.992188 27.976562 208.742188 28.660156 209.457031 29.375 C 210.175781 30.09375 210.855469 30.84375 211.5 31.628906 C 212.144531 32.414062 212.746094 33.226562 213.308594 34.070312 C 213.875 34.914062 214.394531 35.78125 214.871094 36.675781 C 215.351562 37.570312 215.785156 38.488281 216.171875 39.425781 C 216.5625 40.363281 216.902344 41.316406 217.195312 42.285156 C 217.492188 43.257812 217.738281 44.238281 217.933594 45.234375 C 218.132812 46.230469 218.28125 47.230469 218.382812 48.242188 C 218.480469 49.25 218.53125 50.261719 218.53125 51.277344 Z M 218.53125 51.277344 " fill-opacity="1" fill-rule="nonzero"/><path fill="rgb(68.629456%, 88.238525%, 90.979004%)" d="M 361.003906 187.558594 C 361.003906 188.570312 360.957031 189.582031 360.855469 190.59375 C 360.757812 191.601562 360.609375 192.605469 360.410156 193.601562 C 360.210938 194.59375 359.964844 195.578125 359.671875 196.546875 C 359.375 197.519531 359.035156 198.472656 358.648438 199.410156 C 358.257812 200.347656 357.824219 201.261719 357.347656 202.15625 C 356.871094 203.050781 356.347656 203.921875 355.785156 204.765625 C 355.222656 205.609375 354.617188 206.421875 353.972656 207.207031 C 353.332031 207.992188 352.652344 208.742188 351.933594 209.457031 C 351.214844 210.175781 350.464844 210.855469 349.679688 211.5 C 348.898438 212.144531 348.082031 212.746094 347.238281 213.308594 C 346.394531 213.875 345.527344 214.394531 344.632812 214.871094 C 343.738281 215.351562 342.820312 215.785156 341.886719 216.171875 C 340.949219 216.5625 339.992188 216.902344 339.023438 217.195312 C 338.050781 217.492188 337.070312 217.738281 336.074219 217.933594 C 335.078125 218.132812 334.078125 218.28125 333.066406 218.382812 C 332.058594 218.480469 331.046875 218.53125 330.03125 218.53125 C 329.019531 218.53125 328.003906 218.480469 326.996094 218.382812 C 325.988281 218.28125 324.984375 218.132812 323.988281 217.933594 C 322.996094 217.738281 322.011719 217.492188 321.042969 217.195312 C 320.070312 216.902344 319.117188 216.5625 318.179688 216.171875 C 317.242188 215.785156 316.328125 215.351562 315.433594 214.871094 C 314.535156 214.394531 313.667969 213.875 312.824219 213.308594 C 311.980469 212.746094 311.167969 212.144531 310.382812 211.5 C 309.597656 210.855469 308.847656 210.175781 308.132812 209.457031 C 307.414062 208.742188 306.734375 207.992188 306.089844 207.207031 C 305.445312 206.421875 304.84375 205.609375 304.277344 204.765625 C 303.714844 203.921875 303.195312 203.050781 302.714844 202.15625 C 302.238281 201.261719 301.804688 200.347656 301.417969 199.410156 C 301.027344 198.472656 300.6875 197.519531 300.394531 196.546875 C 300.097656 195.578125 299.851562 194.59375 299.65625 193.601562 C 299.457031 192.605469 299.308594 191.601562 299.207031 190.59375 C 299.109375 189.582031 299.058594 188.570312 299.058594 187.558594 C 299.058594 186.542969 299.109375 185.53125 299.207031 184.523438 C 299.308594 183.511719 299.457031 182.511719 299.65625 181.515625 C 299.851562 180.519531 300.097656 179.539062 300.394531 178.566406 C 300.6875 177.597656 301.027344 176.640625 301.417969 175.703125 C 301.804688 174.765625 302.238281 173.851562 302.714844 172.957031 C 303.195312 172.0625 303.714844 171.191406 304.277344 170.351562 C 304.84375 169.507812 305.445312 168.691406 306.089844 167.910156 C 306.734375 167.125 307.414062 166.375 308.132812 165.65625 C 308.847656 164.9375 309.597656 164.257812 310.382812 163.613281 C 311.167969 162.972656 311.980469 162.367188 312.824219 161.804688 C 313.667969 161.242188 314.535156 160.71875 315.433594 160.242188 C 316.328125 159.761719 317.242188 159.332031 318.179688 158.941406 C 319.117188 158.554688 320.070312 158.210938 321.042969 157.917969 C 322.011719 157.625 322.996094 157.378906 323.988281 157.179688 C 324.984375 156.980469 325.988281 156.832031 326.996094 156.734375 C 328.003906 156.632812 329.019531 156.585938 330.03125 156.585938 C 331.046875 156.585938 332.058594 156.632812 333.066406 156.734375 C 334.078125 156.832031 335.078125 156.980469 336.074219 157.179688 C 337.070312 157.378906 338.050781 157.625 339.023438 157.917969 C 339.992188 158.210938 340.949219 158.554688 341.886719 158.941406 C 342.820312 159.332031 343.738281 159.761719 344.632812 160.242188 C 345.527344 160.71875 346.394531 161.242188 347.238281 161.804688 C 348.082031 162.367188 348.898438 162.972656 349.679688 163.613281 C 350.464844 164.257812 351.214844 164.9375 351.933594 165.65625 C 352.652344 166.375 353.332031 167.125 353.972656 167.910156 C 354.617188 168.691406 355.222656 169.507812 355.785156 170.351562 C 356.347656 171.191406 356.871094 172.0625 357.347656 172.957031 C 357.824219 173.851562 358.257812 174.765625 358.648438 175.703125 C 359.035156 176.640625 359.375 177.597656 359.671875 178.566406 C 359.964844 179.539062 360.210938 180.519531 360.410156 181.515625 C 360.609375 182.511719 360.757812 183.511719 360.855469 184.523438 C 360.957031 185.53125 361.003906 186.542969 361.003906 187.558594 Z M 361.003906 187.558594 " fill-opacity="1" fill-rule="nonzero"/><path fill="rgb(68.629456%, 88.238525%, 90.979004%)" d="M 82.25 187.558594 C 82.25 188.570312 82.199219 189.582031 82.101562 190.59375 C 82 191.601562 81.851562 192.605469 81.65625 193.601562 C 81.457031 194.59375 81.210938 195.578125 80.917969 196.546875 C 80.621094 197.519531 80.28125 198.472656 79.890625 199.410156 C 79.503906 200.347656 79.070312 201.261719 78.59375 202.15625 C 78.113281 203.050781 77.59375 203.921875 77.03125 204.765625 C 76.464844 205.609375 75.863281 206.421875 75.21875 207.207031 C 74.574219 207.992188 73.894531 208.742188 73.179688 209.457031 C 72.460938 210.175781 71.710938 210.855469 70.925781 211.5 C 70.140625 212.144531 69.328125 212.746094 68.484375 213.308594 C 67.640625 213.875 66.773438 214.394531 65.878906 214.871094 C 64.984375 215.351562 64.066406 215.785156 63.128906 216.171875 C 62.191406 216.5625 61.238281 216.902344 60.269531 217.195312 C 59.296875 217.492188 58.316406 217.738281 57.320312 217.933594 C 56.324219 218.132812 55.324219 218.28125 54.3125 218.382812 C 53.304688 218.480469 52.292969 218.53125 51.277344 218.53125 C 50.261719 218.53125 49.25 218.480469 48.242188 218.382812 C 47.230469 218.28125 46.230469 218.132812 45.234375 217.933594 C 44.238281 217.738281 43.257812 217.492188 42.285156 217.195312 C 41.316406 216.902344 40.363281 216.5625 39.425781 216.171875 C 38.488281 215.785156 37.570312 215.351562 36.675781 214.871094 C 35.78125 214.394531 34.914062 213.875 34.070312 213.308594 C 33.226562 212.746094 32.414062 212.144531 31.628906 211.5 C 30.84375 210.855469 30.09375 210.175781 29.375 209.457031 C 28.660156 208.742188 27.976562 207.992188 27.335938 207.207031 C 26.691406 206.421875 26.085938 205.609375 25.523438 204.765625 C 24.960938 203.921875 24.441406 203.050781 23.960938 202.15625 C 23.484375 201.261719 23.050781 200.347656 22.660156 199.410156 C 22.273438 198.472656 21.933594 197.519531 21.636719 196.546875 C 21.34375 195.578125 21.097656 194.59375 20.898438 193.601562 C 20.703125 192.605469 20.554688 191.601562 20.453125 190.59375 C 20.355469 189.582031 20.304688 188.570312 20.304688 187.558594 C 20.304688 186.542969 20.355469 185.53125 20.453125 184.523438 C 20.554688 183.511719 20.703125 182.511719 20.898438 181.515625 C 21.097656 180.519531 21.34375 179.539062 21.636719 178.566406 C 21.933594 177.597656 22.273438 176.640625 22.660156 175.703125 C 23.050781 174.765625 23.484375 173.851562 23.960938 172.957031 C 24.441406 172.0625 24.960938 171.191406 25.523438 170.351562 C 26.085938 169.507812 26.691406 168.691406 27.335938 167.910156 C 27.976562 167.125 28.660156 166.375 29.375 165.65625 C 30.09375 164.9375 30.84375 164.257812 31.628906 163.613281 C 32.414062 162.972656 33.226562 162.367188 34.070312 161.804688 C 34.914062 161.242188 35.78125 160.71875 36.675781 160.242188 C 37.570312 159.761719 38.488281 159.332031 39.425781 158.941406 C 40.363281 158.554688 41.316406 158.210938 42.285156 157.917969 C 43.257812 157.625 44.238281 157.378906 45.234375 157.179688 C 46.230469 156.980469 47.230469 156.832031 48.242188 156.734375 C 49.25 156.632812 50.261719 156.585938 51.277344 156.585938 C 52.292969 156.585938 53.304688 156.632812 54.3125 156.734375 C 55.324219 156.832031 56.324219 156.980469 57.320312 157.179688 C 58.316406 157.378906 59.296875 157.625 60.269531 157.917969 C 61.238281 158.210938 62.191406 158.554688 63.128906 158.941406 C 64.066406 159.332031 64.984375 159.761719 65.878906 160.242188 C 66.773438 160.71875 67.640625 161.242188 68.484375 161.804688 C 69.328125 162.367188 70.140625 162.972656 70.925781 163.613281 C 71.710938 164.257812 72.460938 164.9375 73.179688 165.65625 C 73.894531 166.375 74.574219 167.125 75.21875 167.910156 C 75.863281 168.691406 76.464844 169.507812 77.03125 170.351562 C 77.59375 171.191406 78.113281 172.0625 78.59375 172.957031 C 79.070312 173.851562 79.503906 174.765625 79.890625 175.703125 C 80.28125 176.640625 80.621094 177.597656 80.917969 178.566406 C 81.210938 179.539062 81.457031 180.519531 81.65625 181.515625 C 81.851562 182.511719 82 183.511719 82.101562 184.523438 C 82.199219 185.53125 82.25 186.542969 82.25 187.558594 Z M 82.25 187.558594 " fill-opacity="1" fill-rule="nonzero"/><path fill="rgb(68.629456%, 88.238525%, 90.979004%)" d="M 218.53125 330.03125 C 218.53125 331.046875 218.480469 332.058594 218.382812 333.066406 C 218.28125 334.078125 218.132812 335.078125 217.933594 336.074219 C 217.738281 337.070312 217.492188 338.050781 217.195312 339.023438 C 216.902344 339.992188 216.5625 340.949219 216.171875 341.886719 C 215.785156 342.820312 215.351562 343.738281 214.871094 344.632812 C 214.394531 345.527344 213.875 346.394531 213.308594 347.238281 C 212.746094 348.082031 212.144531 348.898438 211.5 349.679688 C 210.855469 350.464844 210.175781 351.214844 209.457031 351.933594 C 208.742188 352.652344 207.992188 353.332031 207.207031 353.972656 C 206.421875 354.617188 205.609375 355.222656 204.765625 355.785156 C 203.921875 356.347656 203.050781 356.871094 202.15625 357.347656 C 201.261719 357.824219 200.347656 358.257812 199.410156 358.648438 C 198.472656 359.035156 197.519531 359.375 196.546875 359.671875 C 195.578125 359.964844 194.59375 360.210938 193.601562 360.410156 C 192.605469 360.609375 191.601562 360.757812 190.59375 360.855469 C 189.582031 360.957031 188.570312 361.003906 187.558594 361.003906 C 186.542969 361.003906 185.53125 360.957031 184.523438 360.855469 C 183.511719 360.757812 182.511719 360.609375 181.515625 360.410156 C 180.519531 360.210938 179.539062 359.964844 178.566406 359.671875 C 177.597656 359.375 176.640625 359.035156 175.703125 358.648438 C 174.765625 358.257812 173.851562 357.824219 172.957031 357.347656 C 172.0625 356.871094 171.191406 356.347656 170.351562 355.785156 C 169.507812 355.222656 168.691406 354.617188 167.910156 353.972656 C 167.125 353.332031 166.375 352.652344 165.65625 351.933594 C 164.9375 351.214844 164.257812 350.464844 163.613281 349.679688 C 162.972656 348.898438 162.367188 348.082031 161.804688 347.238281 C 161.242188 346.394531 160.71875 345.527344 160.242188 344.632812 C 159.761719 343.738281 159.332031 342.820312 158.941406 341.886719 C 158.554688 340.949219 158.210938 339.992188 157.917969 339.023438 C 157.625 338.050781 157.378906 337.070312 157.179688 336.074219 C 156.980469 335.078125 156.832031 334.078125 156.734375 333.066406 C 156.632812 332.058594 156.585938 331.046875 156.585938 330.03125 C 156.585938 329.019531 156.632812 328.003906 156.734375 326.996094 C 156.832031 325.988281 156.980469 324.984375 157.179688 323.988281 C 157.378906 322.996094 157.625 322.011719 157.917969 321.042969 C 158.210938 320.070312 158.554688 319.117188 158.941406 318.179688 C 159.332031 317.242188 159.761719 316.328125 160.242188 315.433594 C 160.71875 314.535156 161.242188 313.667969 161.804688 312.824219 C 162.367188 311.980469 162.972656 311.167969 163.613281 310.382812 C 164.257812 309.597656 164.9375 308.847656 165.65625 308.132812 C 166.375 307.414062 167.125 306.734375 167.910156 306.089844 C 168.691406 305.445312 169.507812 304.84375 170.351562 304.277344 C 171.191406 303.714844 172.0625 303.195312 172.957031 302.714844 C 173.851562 302.238281 174.765625 301.804688 175.703125 301.417969 C 176.640625 301.027344 177.597656 300.6875 178.566406 300.394531 C 179.539062 300.097656 180.519531 299.851562 181.515625 299.65625 C 182.511719 299.457031 183.511719 299.308594 184.523438 299.207031 C 185.53125 299.109375 186.542969 299.058594 187.558594 299.058594 C 188.570312 299.058594 189.582031 299.109375 190.59375 299.207031 C 191.601562 299.308594 192.605469 299.457031 193.601562 299.65625 C 194.59375 299.851562 195.578125 300.097656 196.546875 300.394531 C 197.519531 300.6875 198.472656 301.027344 199.410156 301.417969 C 200.347656 301.804688 201.261719 302.238281 202.15625 302.714844 C 203.050781 303.195312 203.921875 303.714844 204.765625 304.277344 C 205.609375 304.84375 206.421875 305.445312 207.207031 306.089844 C 207.992188 306.734375 208.742188 307.414062 209.457031 308.132812 C 210.175781 308.847656 210.855469 309.597656 211.5 310.382812 C 212.144531 311.167969 212.746094 311.980469 213.308594 312.824219 C 213.875 313.667969 214.394531 314.535156 214.871094 315.433594 C 215.351562 316.328125 215.785156 317.242188 216.171875 318.179688 C 216.5625 319.117188 216.902344 320.070312 217.195312 321.042969 C 217.492188 322.011719 217.738281 322.996094 217.933594 323.988281 C 218.132812 324.984375 218.28125 325.988281 218.382812 326.996094 C 218.480469 328.003906 218.53125 329.019531 218.53125 330.03125 Z M 218.53125 330.03125 " fill-opacity="1" fill-rule="nonzero"/><path fill="rgb(54.508972%, 54.119873%, 54.119873%)" d="M 241.070312 206.597656 C 242.324219 203.082031 245.589844 200.675781 249.324219 200.675781 L 261.890625 200.675781 L 261.890625 174.445312 L 249.324219 174.445312 C 245.589844 174.445312 242.328125 172.039062 241.070312 168.523438 C 240.429688 166.707031 239.691406 164.933594 238.867188 163.207031 C 237.257812 159.824219 237.855469 155.816406 240.507812 153.164062 L 249.398438 144.277344 L 230.84375 125.722656 L 221.957031 134.613281 C 219.304688 137.265625 215.296875 137.859375 211.914062 136.246094 C 210.191406 135.425781 208.414062 134.691406 206.597656 134.042969 C 203.082031 132.792969 200.675781 129.53125 200.675781 125.792969 L 200.675781 113.222656 L 174.445312 113.222656 L 174.445312 125.792969 C 174.445312 129.527344 172.039062 132.785156 168.523438 134.042969 C 166.707031 134.6875 164.933594 135.425781 163.207031 136.246094 C 159.824219 137.859375 155.816406 137.257812 153.164062 134.613281 L 144.277344 125.722656 L 125.722656 144.277344 L 134.613281 153.164062 C 137.265625 155.816406 137.863281 159.824219 136.253906 163.207031 C 135.429688 164.929688 134.699219 166.707031 134.046875 168.523438 C 132.796875 172.039062 129.539062 174.445312 125.796875 174.445312 L 113.222656 174.445312 L 113.222656 200.675781 L 125.792969 200.675781 C 129.527344 200.675781 132.785156 203.082031 134.042969 206.597656 C 134.6875 208.414062 135.425781 210.1875 136.246094 211.914062 C 137.859375 215.296875 137.257812 219.304688 134.613281 221.957031 L 125.722656 230.84375 L 144.277344 249.398438 L 153.164062 240.507812 C 155.816406 237.855469 159.824219 237.261719 163.207031 238.875 C 164.929688 239.695312 166.707031 240.429688 168.523438 241.078125 C 172.039062 242.328125 174.445312 245.59375 174.445312 249.328125 L 174.445312 261.890625 L 200.675781 261.890625 L 200.675781 249.324219 C 200.675781 245.589844 203.082031 242.328125 206.597656 241.070312 C 208.414062 240.429688 210.1875 239.691406 211.914062 238.867188 C 215.296875 237.257812 219.304688 237.855469 221.957031 240.503906 L 230.84375 249.390625 L 249.398438 230.839844 L 240.507812 221.949219 C 237.855469 219.296875 237.257812 215.289062 238.875 211.910156 C 239.683594 210.1875 240.421875 208.414062 241.070312 206.597656 Z M 187.558594 218.53125 C 170.453125 218.53125 156.585938 204.660156 156.585938 187.558594 C 156.585938 170.453125 170.453125 156.585938 187.558594 156.585938 C 204.660156 156.585938 218.53125 170.453125 218.53125 187.558594 C 218.53125 204.660156 204.660156 218.53125 187.558594 218.53125 Z M 187.558594 218.53125 " fill-opacity="1" fill-rule="nonzero"/><path fill="rgb(90.979004%, 90.979004%, 90.979004%)" d="M 51.453125 9.664062 C 28.699219 9.664062 10.25 28.113281 10.25 50.871094 C 10.25 73.625 28.699219 92.074219 51.453125 92.074219 C 74.210938 92.074219 92.65625 73.625 92.65625 50.871094 C 92.65625 28.113281 74.210938 9.664062 51.453125 9.664062 Z M 51.453125 9.664062 " fill-opacity="1" fill-rule="nonzero"/><path fill="rgb(90.979004%, 90.979004%, 90.979004%)" d="M 324.4375 282.46875 C 301.683594 282.46875 283.234375 300.914062 283.234375 323.671875 C 283.234375 346.429688 301.683594 364.875 324.4375 364.875 C 347.195312 364.875 365.640625 346.429688 365.640625 323.671875 C 365.640625 300.914062 347.195312 282.46875 324.4375 282.46875 Z M 324.4375 282.46875 " fill-opacity="1" fill-rule="nonzero"/><path fill="rgb(90.979004%, 90.979004%, 90.979004%)" d="M 51.453125 282.46875 C 28.699219 282.46875 10.25 300.914062 10.25 323.671875 C 10.25 346.429688 28.699219 364.875 51.453125 364.875 C 74.210938 364.875 92.65625 346.429688 92.65625 323.671875 C 92.65625 300.914062 74.210938 282.46875 51.453125 282.46875 Z M 51.453125 282.46875 " fill-opacity="1" fill-rule="nonzero"/><path fill="rgb(90.979004%, 90.979004%, 90.979004%)" d="M 323.597656 9.664062 C 300.839844 9.664062 282.394531 28.113281 282.394531 50.871094 C 282.394531 73.625 300.839844 92.074219 323.597656 92.074219 C 346.351562 92.074219 364.800781 73.625 364.800781 50.871094 C 364.800781 28.113281 346.351562 9.664062 323.597656 9.664062 Z M 323.597656 9.664062 " fill-opacity="1" fill-rule="nonzero"/></svg>